{"title":"Big Trouble In Little China [1986][DVDrip]","uid":5029235,"size":735129567,"categoryP":"video","categoryS":"movies","magnet":"?xt=urn:btih:ef613da569648fdcb0516b8d0382874d941d19fd&amp;dn=Big+Trouble+In+Little+China+%5B1986%5D%5BDVDrip%5D&amp;tr=udp%3A%2F%2Ftracker.openbittorrent.com%3A80&amp;tr=udp%3A%2F%2Fopen.demonii.com%3A1337&amp;tr=udp%3A%2F%2Ftracker.coppersurfer.tk%3A6969&amp;tr=udp%3A%2F%2Fexodus.desync.com%3A6969","seeders":0,"leechers":3,"uploader":"thatswhatshewatched","files":-1,"time":1248839526,"description":"                         Big Trouble in Little China (1986)\n-----------------------------------------------------------------------------------\n\nJack Burton, trucker and king of the road meets his friend Wang as Wang's fiance is kidnapped as a potential bride for a cursed Chinese magician. They also steal Jack's Truck. Martial arts, gunfire, and magic ensue as Jack and Wang try and rescue her.\n\nEnjoy.\n\n\nFormat                           : AVI\nFormat/Info                      : Audio Video Interleave\nFile size                        : 701 MiB\nDuration                         : 1h 39mn\nOverall bit rate                 : 982 Kbps\nWriting application              : VirtualDubMod 1.5.4.1 \n                              \nFormat                           : MPEG-4 Visual\nFormat profile                   : AdvancedSimple@L5\nFormat settings, BVOP            : Yes\nFormat settings, QPel            : No\nFormat settings, GMC             : No warppoints\nFormat settings, Matrix          : Custom\nCodec ID                         : XVID\nCodec ID/Hint                    : XviD\nDuration                         : 1h 39mn\nBit rate                         : 863 Kbps\nWidth                            : 608 pixels\nHeight                           : 272 pixels\nDisplay aspect ratio             : 2.25\nFrame rate                       : 23.976 fps\nResolution                       : 24 bits\nColorimetry                      : 4:2:0\nScan type                        : Progressive\nBits/(Pixel*Frame)               : 0.218\nStream size                      : 616 MiB (88%)\nWriting library                  : XviD 1.2.0.dev47 (UTC 2006-11-01)\n                             \nFormat                           : MPEG Audio\nFormat version                   : Version 1\nFormat profile                   : Layer 3\nCodec ID                         : 55\nCodec ID/Hint                    : MP3\nDuration                         : 1h 39mn\nBit rate mode                    : Constant\nBit rate                         : 112 Kbps\nChannel(s)                       : 2 channels\nSampling rate                    : 44.1 KHz\nResolution                       : 16 bits\nStream size                      : 80.0 MiB (11%)\nAlignment                        : Split accross interleaves\nInterleave, duration             : 83 ms (2.00 video frames)\nInterleave, preload duration     : 500 ms\nWriting library                  : LAME3.97 ","torrent":{"xt":"urn:btih:ef613da569648fdcb0516b8d0382874d941d19fd","amp;dn":"Big+Trouble+In+Little+China+%5B1986%5D%5BDVDrip%5D","amp;tr":["udp%3A%2F%2Ftracker.openbittorrent.com%3A80","udp%3A%2F%2Fopen.demonii.com%3A1337","udp%3A%2F%2Ftracker.coppersurfer.tk%3A6969","udp%3A%2F%2Fexodus.desync.com%3A6969"],"infoHash":"ef613da569648fdcb0516b8d0382874d941d19fd","infoHashBuffer":{"type":"Buffer","data":[239,97,61,165,105,100,143,220,176,81,107,141,3,130,135,77,148,29,25,253]},"announce":[],"urlList":[]}}